<svg id="Layer_1" data-name="Layer 1" xmlns="http://www.w3.org/2000/svg" viewBox="0 0 263.7 174.6"><defs><style>.cls-1{fill:#9bdae9;}.cls-2{fill:#2e2725;}</style></defs><title>TOMS_logo_header</title><path class="cls-1" d="M0,0V56H252.56V0ZM0,174.6H252.56v-56H0Z"/><path class="cls-2" d="M46.39,69.4v-5H75.31v5H63.69v41.13H58V69.4Z"/><path class="cls-2" d="M77.32,77.93a23.12,23.12,0,0,1,4.87-7.63,22.12,22.12,0,0,1,7.34-5,23.19,23.19,0,0,1,18.06,0,22.22,22.22,0,0,1,7.34,5,22.8,22.8,0,0,1,4.87,7.63,25.18,25.18,0,0,1,1.82,9.53,24.71,24.71,0,0,1-3.09,12.29,22.79,22.79,0,0,1-39.95,0,26.28,26.28,0,0,1-1.26-21.82Zm30,26.29a16.26,16.26,0,0,0,6.26-6.63,22.77,22.77,0,0,0,0-20.27,16.33,16.33,0,0,0-15-8.85,17.13,17.13,0,0,0-12.3,5c-3.12,3.18-5.06,8.17-5.06,14s1.94,10.78,5.06,14a17.13,17.13,0,0,0,12.3,5A17.41,17.41,0,0,0,107.31,104.22Z"/><path class="cls-2" d="M123.36,110.53l11.5-46.15h1.88l12.82,33.76,12.83-33.76h1.88l11.5,46.15H170.1L162.45,79.6l-12.27,30.93h-1.26L136.68,79.6,129,110.53Z"/><path class="cls-2" d="M179.84,99.33h.62a24,24,0,0,0,5.18,5.15,10.86,10.86,0,0,0,6.44,2,8.51,8.51,0,0,0,6.14-2.19,8.38,8.38,0,0,0-.41-11.9,24,24,0,0,0-6.75-4.15,23,23,0,0,1-8-5.67,11.4,11.4,0,0,1-3-7.79,10.18,10.18,0,0,1,3.63-8.17,13.35,13.35,0,0,1,8.94-3.09,14.85,14.85,0,0,1,10.27,3.67l.28,6.34h-.83c-2.87-3.51-6.17-5.28-9.93-5.28a7.8,7.8,0,0,0-5.27,1.8,5.78,5.78,0,0,0-2,4.54c0,3.89,3.3,6.69,9.47,9.43,7.52,3.31,11.62,7.63,11.62,13.65a13.25,13.25,0,0,1-4,9.87,13.69,13.69,0,0,1-10.08,4,17,17,0,0,1-12.61-5.27Z"/><path class="cls-2" d="M257.55,3.28a3.08,3.08,0,1,1,6.15,0,3.08,3.08,0,1,1-6.15,0Zm5.54,0a2.47,2.47,0,1,0-4.93,0,2.47,2.47,0,1,0,4.93,0Zm-3.65-1.83h1.45c.72,0,1.1.37,1.1,1a.84.84,0,0,1-.52.83c.25.07.39.23.43.58a5.08,5.08,0,0,0,.13,1v0h-.45a4.55,4.55,0,0,1-.11-.88c-.06-.48-.16-.56-.64-.56h-1V4.89h-.43ZM260.83,3c.48,0,.7-.22.7-.58s-.23-.57-.73-.57h-.93V3Z"/></svg>